<svg width="24" height="24" viewBox="0 0 24 24" fill="none" xmlns="http://www.w3.org/2000/svg">
<path d="M17.55 5.54816C17.8063 5.54934 18.0518 5.65169 18.233 5.83294C18.4143 6.01418 18.5166 6.25967 18.5178 6.51599V15.6464C18.5224 15.7764 18.5007 15.906 18.4542 16.0274C18.4076 16.1488 18.337 16.2596 18.2467 16.3532C18.1564 16.4467 18.0482 16.5212 17.9284 16.572C17.8087 16.6228 17.68 16.649 17.55 16.649C17.4199 16.649 17.2912 16.6228 17.1715 16.572C17.0518 16.5212 16.9435 16.4467 16.8532 16.3532C16.7629 16.2596 16.6923 16.1488 16.6458 16.0274C16.5992 15.906 16.5775 15.7764 16.5821 15.6464V8.85338L7.27821 18.1573C7.0966 18.3389 6.85027 18.4409 6.59343 18.4409C6.33659 18.4409 6.09026 18.3389 5.90865 18.1573C5.72703 17.9757 5.625 17.7293 5.625 17.4725C5.625 17.2157 5.72703 16.9693 5.90865 16.7877L15.2126 7.48382H8.41952C8.16875 7.47497 7.9312 7.36912 7.75692 7.18859C7.58265 7.00805 7.48525 6.76692 7.48525 6.51599C7.48525 6.26506 7.58265 6.02393 7.75692 5.84339C7.9312 5.66286 8.16875 5.55702 8.41952 5.54816H17.55Z" fill="white"/>
</svg>
