<svg width="20" height="20" viewBox="0 0 20 20" fill="none" xmlns="http://www.w3.org/2000/svg">
<path d="M16.2286 4.07156C14.5846 2.46298 11.9564 2.46333 10.3128 4.07235L3.41948 10.9657C2.17302 12.2416 2.19684 14.2863 3.47269 15.5327C4.72754 16.7587 6.73162 16.7587 7.98647 15.5327L14.2285 9.29069C15.04 8.47922 15.04 7.16352 14.2285 6.35205C13.417 5.54057 12.1013 5.54057 11.2899 6.35205L5.31922 12.3227C5.11096 12.5383 5.11694 12.8819 5.33257 13.0902C5.54292 13.2933 5.87639 13.2933 6.08674 13.0902L12.0574 7.11954C12.4533 6.74025 13.0817 6.75376 13.461 7.14969C13.8288 7.53366 13.8288 8.13923 13.461 8.5232L7.21899 14.7652C6.37574 15.5965 5.01826 15.5867 4.187 14.7435C3.36414 13.9088 3.36414 12.5679 4.187 11.7332L11.0803 4.83984C12.3082 3.61151 14.2993 3.61116 15.5277 4.83901C16.756 6.06686 16.7563 8.05801 15.5285 9.28633L8.63511 16.1797C8.40743 16.3747 8.38091 16.7174 8.57589 16.945C8.77088 17.1727 9.11354 17.1992 9.34122 17.0043C9.36247 16.9861 9.38225 16.9663 9.40044 16.945L16.2938 10.0517C17.9272 8.38231 17.898 5.7049 16.2286 4.07156Z" fill="#69697D"/>
</svg>
