<svg width="94" height="32" viewBox="0 0 94 32" fill="none" xmlns="http://www.w3.org/2000/svg">
<path d="M41.2567 6.9315C45.4068 6.91325 48.8714 9.27314 50.0384 13.318C51.0276 16.7049 50.5602 20.9693 48.1522 23.6747C46.3879 25.6575 44.054 26.3769 41.4911 26.5027C35.9006 26.4602 32.3032 22.8517 32.084 17.2579C31.8574 11.4759 35.2292 7.14167 41.2567 6.9315ZM42.0251 23.7558C49.639 22.7294 48.7704 8.8852 40.7194 9.75478C39.1638 9.92871 37.7847 10.5133 36.8413 11.8045C33.6957 16.1086 35.436 24.5784 41.9934 23.76L42.0251 23.7558Z" fill="#22192C"/>
<path d="M82.7117 12.2726C86.5776 11.6228 90.2395 14.2268 90.8961 18.0926C91.5533 21.9585 88.9574 25.6265 85.0942 26.291C81.2202 26.9573 77.5414 24.3518 76.8829 20.4756C76.2243 16.5992 78.8357 12.9241 82.7117 12.2726ZM84.2181 24.0292C85.2726 23.8557 86.1655 23.4536 86.7621 22.534C88.5439 19.7893 87.7918 14.4793 83.7164 14.6085C81.0208 14.8302 80.167 16.8114 80.1347 19.3468C80.1178 20.7154 80.6235 22.3778 81.676 23.2953C82.437 23.9471 83.2673 24.0378 84.2181 24.0292Z" fill="#22192C"/>
<path d="M62.499 7.31344C63.4963 7.30866 64.4929 7.31136 65.4902 7.32173C65.4929 9.74885 65.5461 12.3949 65.4626 14.8038C66.0505 13.7972 66.9575 12.6813 68.1083 12.3849C72.4779 11.2595 75.0382 13.7876 74.892 18.1016C74.8011 20.8057 74.9971 23.489 74.8402 26.1455C73.8341 26.1529 72.8288 26.1544 71.8227 26.1501L71.82 20.1544C71.8295 18.7816 71.9971 16.528 71.014 15.5405C69.2881 13.8076 65.9259 14.7796 65.6283 17.3389C65.4788 18.6205 65.5185 19.6435 65.5212 20.8925C65.5407 22.6355 65.5286 24.3787 65.4848 26.1213C64.5609 26.1875 63.4418 26.1603 62.501 26.1593L62.499 7.31344Z" fill="#22192C"/>
<path d="M60.8962 12.4682C61.0322 12.6588 60.9757 14.6079 60.973 14.9945C59.3582 14.9925 57.7151 15.0513 56.1138 15.0308C56.0451 18.7276 56.1266 22.4379 56.0425 26.1079C55.0835 26.1613 54.1334 26.1529 53.1738 26.1524C53.0324 25.9561 53.0715 15.7323 53.0748 14.6015C54.0593 13.9375 54.6923 13.2916 55.5441 12.4831C57.3192 12.5157 59.1138 12.459 60.8962 12.4682Z" fill="#22192C"/>
<path d="M6.05833 8.17847C6.2754 7.91868 6.56199 7.66813 6.82613 7.45496C10.5721 4.43225 15.5544 4.15406 19.6491 6.60869C19.9948 6.81461 20.2389 7.00306 20.5614 7.21193C19.8915 7.62516 19.2192 8.03461 18.5447 8.44036C18.1687 8.66495 17.6465 8.94969 17.3046 9.19143C15.8079 8.30668 13.6026 8.15367 11.9339 8.58441C9.95531 9.0967 8.26153 10.3748 7.22562 12.1372C6.18639 13.9055 5.84384 15.9562 6.36281 17.952C6.68077 19.2105 7.33123 20.3602 8.24606 21.2807C7.35625 22.2261 6.41799 23.1251 5.49291 24.0358C4.30134 25.2211 3.09777 26.3943 1.88236 27.5552C1.62749 27.7973 0.234759 29.1494 0 29.3014C0.0422052 29.1691 0.763434 28.4027 0.896675 28.2363C2.66754 26.0259 4.72741 23.6247 3.7093 20.5863C3.5344 20.0643 3.3127 19.5464 3.16067 19.0163C2.39747 16.1542 2.7733 13.2694 4.17893 10.6684C4.4762 10.1183 5.58897 8.4765 6.05833 8.17847Z" fill="url(#paint0_linear_9247_24)"/>
<path d="M6.05859 8.17847C6.27566 7.91868 6.56225 7.66813 6.82639 7.45496C10.5723 4.43225 15.5547 4.15406 19.6494 6.60869C19.1602 6.54784 18.7141 6.97744 18.1709 6.8895C17.2978 6.74814 16.6828 6.47057 15.7834 6.66265C15.0509 6.81901 14.2299 6.52655 13.5049 6.45517C12.9859 6.40407 12.371 6.62897 11.8451 6.48714C11.0197 6.26041 10.3203 6.61088 9.51513 6.70327C9.33216 6.72483 8.09991 6.8249 8.02883 6.86271C7.51188 7.13775 6.54004 7.79927 6.12956 8.19737L6.05859 8.17847Z" fill="url(#paint1_linear_9247_24)"/>
<path d="M22.4463 7.75477C22.9583 7.75933 23.4432 7.07438 23.6897 6.69619C23.883 6.3996 24.5216 6.43317 24.7475 6.6339C24.8054 6.7857 24.7883 6.74025 24.7463 6.92698L24.7974 6.94978C24.0447 8.8469 23.8086 10.2694 24.2815 12.3206C24.5507 13.4883 24.7997 14.2224 24.8723 15.444C25.1467 20.0529 22.5267 24.3465 18.3032 26.2088C15.5745 27.3966 12.4846 27.4455 9.7196 26.3447C8.88103 26.0114 7.85665 25.4683 7.16309 24.8902C8.13369 24.3015 9.45994 23.4507 10.4331 22.9262C12.278 23.8597 14.2617 24.022 16.2328 23.3749C18.1841 22.7343 19.8009 21.3441 20.7271 19.5106C21.6557 17.6808 21.8071 15.5536 21.1468 13.6106C20.7867 12.5496 20.2021 11.5789 19.4329 10.7644C20.001 10.1064 20.6974 9.49084 21.3149 8.86511C21.4821 8.69565 22.305 7.85616 22.4463 7.75477Z" fill="url(#paint2_linear_9247_24)"/>
<path d="M13.6459 12.3211C15.7021 12.215 17.4566 13.793 17.5692 15.8495C17.6818 17.9061 16.1101 19.6663 14.0546 19.7856C11.9897 19.9054 10.2204 18.3244 10.1073 16.2584C9.99416 14.1924 11.5803 12.4276 13.6459 12.3211Z" fill="url(#paint3_linear_9247_24)"/>
<path d="M22.4463 7.75469C22.8414 7.30867 23.5047 6.696 23.9493 6.25454C24.9295 5.26364 25.9193 4.28221 26.9184 3.31042L27.036 3.44709C26.3152 4.44797 25.3226 5.8608 24.7974 6.9497L24.7464 6.9269C24.7883 6.74016 24.8054 6.78562 24.7475 6.63382C24.5217 6.43309 23.8831 6.39952 23.6897 6.69611C23.4432 7.0743 22.9583 7.75925 22.4463 7.75469Z" fill="url(#paint4_linear_9247_24)"/>
<path d="M26.9189 3.31052L27.5823 2.63477C27.5682 2.74652 27.136 3.31354 27.0365 3.44719L26.9189 3.31052Z" fill="url(#paint5_linear_9247_24)"/>
<defs>
<linearGradient id="paint0_linear_9247_24" x1="0" y1="17.1288" x2="21.0087" y2="17.9571" gradientUnits="userSpaceOnUse">
<stop stop-color="#AA25D7"/>
<stop offset="1" stop-color="#793DF1"/>
</linearGradient>
<linearGradient id="paint1_linear_9247_24" x1="6.05859" y1="6.57677" x2="19.4534" y2="9.19873" gradientUnits="userSpaceOnUse">
<stop stop-color="#AA25D7"/>
<stop offset="1" stop-color="#793DF1"/>
</linearGradient>
<linearGradient id="paint2_linear_9247_24" x1="7.16309" y1="16.8074" x2="25.2767" y2="17.5331" gradientUnits="userSpaceOnUse">
<stop stop-color="#AA25D7"/>
<stop offset="1" stop-color="#793DF1"/>
</linearGradient>
<linearGradient id="paint3_linear_9247_24" x1="10.1016" y1="16.054" x2="17.7327" y2="16.4101" gradientUnits="userSpaceOnUse">
<stop stop-color="#AA25D7"/>
<stop offset="1" stop-color="#793DF1"/>
</linearGradient>
<linearGradient id="paint4_linear_9247_24" x1="22.4463" y1="5.53257" x2="27.1322" y2="5.75847" gradientUnits="userSpaceOnUse">
<stop stop-color="#AA25D7"/>
<stop offset="1" stop-color="#793DF1"/>
</linearGradient>
<linearGradient id="paint5_linear_9247_24" x1="26.9189" y1="3.04098" x2="27.5968" y2="3.06682" gradientUnits="userSpaceOnUse">
<stop stop-color="#AA25D7"/>
<stop offset="1" stop-color="#793DF1"/>
</linearGradient>
</defs>
</svg>
